<?xml version="1.0" encoding="UTF-8"?>
<svg width="48" height="48" viewBox="0 0 48 48" xmlns="http://www.w3.org/2000/svg">
  <g fill="currentColor">
    <path d="M44 6H4a2 2 0 0 0-2 2v8a2 2 0 0 0 2 2h40a2 2 0 0 0 2-2V8a2 2 0 0 0-2-2zM4 18h40v22a2 2 0 0 1-2 2H6a2 2 0 0 1-2-2V18z" opacity="0.2"/>
    <path d="M36 24h-8a2 2 0 0 0-2 2v6a2 2 0 0 0 2 2h8a2 2 0 0 0 2-2v-6a2 2 0 0 0-2-2zm-16 0h-8a2 2 0 0 0-2 2v12a2 2 0 0 0 2 2h8a2 2 0 0 0 2-2V26a2 2 0 0 0-2-2zm8-12h-8a2 2 0 0 0-2 2v6a2 2 0 0 0 2 2h8a2 2 0 0 0 2-2v-6a2 2 0 0 0-2-2z"/>
    <path d="M44 4H4a4 4 0 0 0-4 4v32a4 4 0 0 0 4 4h40a4 4 0 0 0 4-4V8a4 4 0 0 0-4-4zm0 36H4V8h40v32z" fill-rule="nonzero"/>
    <path d="M32 36h8v2h-8z"/>
    <path d="M28 30v-4h-2v4h-4v2h10v-2z"/>
    <path d="M15 30h2v8h-2z"/>
  </g>
</svg>