<?xml version="1.0" encoding="UTF-8"?>
<svg width="48" height="48" viewBox="0 0 48 48" xmlns="http://www.w3.org/2000/svg">
  <g fill="currentColor">
    <path d="M24 6a5 5 0 1 0 0 10 5 5 0 0 0 0-10zM9 16a4 4 0 1 0 0 8 4 4 0 0 0 0-8zm30 0a4 4 0 1 0 0 8 4 4 0 0 0 0-8z" opacity="0.2"/>
    <path d="M24 4c4.42 0 8 3.58 8 8s-3.58 8-8 8-8-3.58-8-8 3.58-8 8-8zm0 2c-3.31 0-6 2.69-6 6s2.69 6 6 6 6-2.69 6-6-2.69-6-6-6zm0 16c5.34 0 16 2.68 16 8v6c0 1.1-.9 2-2 2H10c-1.1 0-2-.9-2-2v-6c0-5.32 10.66-8 16-8zm0 2c-5.4 0-14 2.72-14 6v6h28v-6c0-3.28-8.6-6-14-6zM9 14c3.31 0 6 2.69 6 6v3.2c-.75-.12-1.5-.2-2.17-.2-1.8 0-3.51.3-5.04.83C5.81 24.75 4 26.42 4 28.6V32H2v-2a3.93 3.93 0 0 1 .59-2.36 7.14 7.14 0 0 1-2.3-5.24C.29 17.4 4.27 14 9 14zm30 0c4.73 0 8.71 3.4 8.71 8.4 0 2.09-.87 3.98-2.3 5.24.37.67.59 1.45.59 2.36v2h-2v-3.4c0-2.18-1.81-3.85-3.79-4.77-1.53-.53-3.24-.83-5.04-.83-.67 0-1.42.08-2.17.2V20c0-3.31 2.69-6 6-6zm0 2c-2.21 0-4 1.79-4 4s1.79 4 4 4 4-1.79 4-4-1.79-4-4-4zM9 16c-2.21 0-4 1.79-4 4s1.79 4 4 4 4-1.79 4-4-1.79-4-4-4z"/>
  </g>
</svg>