<?xml version="1.0" encoding="UTF-8"?>
<svg width="48" height="48" viewBox="0 0 48 48" xmlns="http://www.w3.org/2000/svg">
  <g fill="currentColor">
    <path d="M40 12H8a2 2 0 0 0-2 2v20a2 2 0 0 0 2 2h32a2 2 0 0 0 2-2V14a2 2 0 0 0-2-2z" opacity="0.2"/>
    <path d="M42 6H6a4 4 0 0 0-4 4v28a4 4 0 0 0 4 4h36a4 4 0 0 0 4-4V10a4 4 0 0 0-4-4zm0 32H6V10h36v28z" fill-rule="nonzero"/>
    <path d="M34 16h8v2h-8z"/>
    <path d="M34 20h8v2h-8z"/>
    <path d="M34 24h8v2h-8z"/>
    <path d="M34 28h8v2h-8z"/>
    <path d="M34 32h8v2h-8z"/>
    <path d="M6 16h8v2H6z"/>
    <path d="M6 20h8v2H6z"/>
    <path d="M6 24h8v2H6z"/>
    <path d="M6 28h8v2H6z"/>
    <path d="M6 32h8v2H6z"/>
    <path d="M20 24c0-2.21 1.79-4 4-4s4 1.79 4 4-1.79 4-4 4-4-1.79-4-4zm-2 0c0 3.31 2.69 6 6 6s6-2.69 6-6-2.69-6-6-6-6 2.69-6 6z"/>
    <path d="M24 14v4h2v-4h-2zm0 16v4h2v-4h-2zM14 24h4v2h-4v-2zm16 0h4v2h-4v-2z"/>
  </g>
</svg>