<?xml version="1.0" encoding="UTF-8"?>
<svg width="48" height="48" viewBox="0 0 48 48" xmlns="http://www.w3.org/2000/svg">
  <g fill="currentColor">
    <path d="M17 4H7a3 3 0 0 0-3 3v10a3 3 0 0 0 3 3h10a3 3 0 0 0 3-3V7a3 3 0 0 0-3-3zm24 0H31a3 3 0 0 0-3 3v10a3 3 0 0 0 3 3h10a3 3 0 0 0 3-3V7a3 3 0 0 0-3-3zM17 28H7a3 3 0 0 0-3 3v10a3 3 0 0 0 3 3h10a3 3 0 0 0 3-3V31a3 3 0 0 0-3-3zm24 0H31a3 3 0 0 0-3 3v10a3 3 0 0 0 3 3h10a3 3 0 0 0 3-3V31a3 3 0 0 0-3-3z" opacity="0.2"/>
    <path d="M12 16a2 2 0 1 0 0 4 2 2 0 0 0 0-4zm12 0a2 2 0 1 0 0 4 2 2 0 0 0 0-4zm12 0a2 2 0 1 0 0 4 2 2 0 0 0 0-4zm0-8a2 2 0 1 0 0 4 2 2 0 0 0 0-4zm0 24a2 2 0 1 0 0 4 2 2 0 0 0 0-4zm-24 0a2 2 0 1 0 0 4 2 2 0 0 0 0-4z"/>
    <path d="M17 2H7a5 5 0 0 0-5 5v10a5 5 0 0 0 5 5h10a5 5 0 0 0 5-5V7a5 5 0 0 0-5-5zm1 15a1 1 0 0 1-1 1H7a1 1 0 0 1-1-1V7a1 1 0 0 1 1-1h10a1 1 0 0 1 1 1v10zm23-15H31a5 5 0 0 0-5 5v10a5 5 0 0 0 5 5h10a5 5 0 0 0 5-5V7a5 5 0 0 0-5-5zm1 15a1 1 0 0 1-1 1H31a1 1 0 0 1-1-1V7a1 1 0 0 1 1-1h10a1 1 0 0 1 1 1v10zm-25 9H7a5 5 0 0 0-5 5v10a5 5 0 0 0 5 5h10a5 5 0 0 0 5-5V31a5 5 0 0 0-5-5zm1 15a1 1 0 0 1-1 1H7a1 1 0 0 1-1-1V31a1 1 0 0 1 1-1h10a1 1 0 0 1 1 1v10zm23-15H31a5 5 0 0 0-5 5v10a5 5 0 0 0 5 5h10a5 5 0 0 0 5-5V31a5 5 0 0 0-5-5zm1 15a1 1 0 0 1-1 1H31a1 1 0 0 1-1-1V31a1 1 0 0 1 1-1h10a1 1 0 0 1 1 1v10z" fill-rule="nonzero"/>
    <path d="M24 14v-4h-2v4h2zm0 24v-4h-2v4h2zM34 24h-4v2h4v-2zm-16 0h-4v2h4v-2zm-1.05-7.36l-2.83-2.83-1.41 1.41 2.83 2.83 1.41-1.41zm2.12 16.74l-2.83 2.83 1.41 1.41 2.83-2.83-1.41-1.41zm12.74-2.12l2.83 2.83 1.41-1.41-2.83-2.83-1.41 1.41zm-2.12-16.74l2.83-2.83-1.41-1.41-2.83 2.83 1.41 1.41z"/>
  </g>
</svg>